#!OML:ASF X:\2005_08_12_Meinard\c3d\meinard.ASF
:FULLY-SPECIFIED
:DEGREES
3210
root 3.50475 16.5621 0.62213 484.554 -85.0575 -504.789
lowerback 34.2375 -0.821932 0.442094
upperback 5.44758 -1.46883 1.14502
thorax -11.3821 -0.989166 1.63282
lowerneck -18.5223 -2.45148 -3.36719
upperneck -0.4208 -3.19688 7.38275
head 2.97791 -1.35745 2.5664
rclavicle -2.13569e-014 -1.43125e-014
rhumerus -12.0802 -58.9553 2.85883
rradius 10.1801
rwrist 53.7883
rhand -0.463723 -13.6292
rfingers 7.12502
rthumb 25.1461 -41.993
lclavicle -2.13569e-014 -1.43125e-014
lhumerus -36.6408 73.9141 -1110.29
lradius 23.2473
lwrist 833.227
lhand -7.41912 0.0372841
lfingers 7.12502
lthumb 18.4677 29.1806
rfemur -172.181 -180.42 198.384
rtibia 36.7005
rfoot 159.365 163.936
rtoes 6.60414
lfemur -176.024 181.753 -195.913
ltibia 42.9999
lfoot -20.5284 24.395
ltoes 13.3535
3211
root 3.50904 16.5624 0.626573 484.867 -85.0445 -505.08
lowerback 34.2192 -0.820642 0.440915
upperback 5.48559 -1.47289 1.13734
thorax -11.3322 -0.993142 1.62571
lowerneck -18.5918 -2.43201 -3.28491
upperneck -0.441018 -3.18253 7.28025
head 2.97732 -1.35489 2.5223
rclavicle -1.35608e-014 2.43511e-015
rhumerus -12.11 -59.0939 2.89363
rradius 10.1633
rwrist 53.8125
rhand -0.486281 -13.6635
rfingers 7.12502
rthumb 25.1245 -42.0304
lclavicle -1.35608e-014 2.43511e-015
lhumerus -37.0817 74.0833 -1110.76
lradius 23.2406
lwrist 833.084
lhand -7.4639 0.0991587
lfingers 7.12502
lthumb 18.4246 29.2466
rfemur -172.228 -180.43 198.353
rtibia 36.6986
rfoot 159.375 163.969
rtoes 6.59041
lfemur -176.063 181.729 -195.937
ltibia 43.0043
lfoot -20.5131 24.3994
ltoes 13.3374
3212
root 3.51203 16.5623 0.631115 485.103 -85.0089 -505.312
lowerback 34.2024 -0.812225 0.452769
upperback 5.53647 -1.46286 1.14578
thorax -11.2685 -0.991881 1.62311
lowerneck -18.7055 -2.4189 -3.25056
upperneck -0.443217 -3.16946 7.22083
head 2.99071 -1.35008 2.4989
rclavicle 7.83646e-015 2.09718e-014
rhumerus -12.1858 -59.4473 3.00871
rradius 10.1438
rwrist 54.0646
rhand -0.484904 -13.6654
rfingers 7.12502
rthumb 25.1258 -42.032
lclavicle 7.83646e-015 2.09718e-014
lhumerus -37.4496 74.1728 -1111.11
lradius 23.2533
lwrist 833.043
lhand -7.47359 0.146544
lfingers 7.12502
lthumb 18.4153 29.2949
rfemur -172.253 -180.431 198.343
rtibia 36.6877
rfoot 159.416 163.999
rtoes 6.6581
lfemur -176.076 181.701 -195.94
ltibia 43.0176
lfoot -20.5211 24.4155
ltoes 13.3129
3213
root 3.51539 16.5617 0.635885 485.198 -84.994 -505.415
lowerback 34.2067 -0.81944 0.471263
upperback 5.58012 -1.47163 1.13952
thorax -11.2212 -0.999178 1.60929
lowerneck -18.7393 -2.39151 -3.15815
upperneck -0.502227 -3.1463 7.11682
head 2.97236 -1.34492 2.45373
rclavicle -1.90864e-014 6.73383e-015
rhumerus -12.2519 -59.6329 3.05908
rradius 10.1728
rwrist 54.1427
rhand -0.483702 -13.7037
rfingers 7.12502
rthumb 25.127 -42.0702
lclavicle -1.90864e-014 6.73383e-015
lhumerus -37.81 74.2863 -1111.49
lradius 23.2356
lwrist 832.9
lhand -7.49541 0.193088
lfingers 7.12502
lthumb 18.3943 29.3434
rfemur -172.261 -180.397 198.307
rtibia 36.6796
rfoot 159.435 164.066
rtoes 6.64945
lfemur -176.084 181.661 -195.941
ltibia 43.0249
lfoot -20.5075 24.4062
ltoes 13.3258
3214
root 3.51844 16.5618 0.640072 485.303 -84.949 -505.51
lowerback 34.1876 -0.820887 0.505508
upperback 5.62453 -1.46674 1.13701
thorax -11.1644 -1.00057 1.58512
lowerneck -18.8227 -2.37166 -3.08972
upperneck -0.504666 -3.13082 7.03912
head 2.98012 -1.34011 2.41953
rclavicle 1.59928e-014 -1.63749e-014
rhumerus -12.338 -59.9008 3.14933
rradius 10.1679
rwrist 54.2982
rhand -0.495819 -13.7061
rfingers 7.12502
rthumb 25.1154 -42.0743
lclavicle 1.59928e-014 -1.63749e-014
lhumerus -37.9964 74.3259 -1111.69
lradius 23.2255
lwrist 832.835
lhand -7.51519 0.18912
lfingers 7.12502
lthumb 18.3753 29.3412
rfemur -172.289 -180.402 198.318
rtibia 36.6654
rfoot 159.479 164.086
rtoes 6.71562
lfemur -176.107 181.65 -195.927
ltibia 43.0385
lfoot -20.5204 24.4207
ltoes 13.2667
3215
root 3.52132 16.5621 0.644544 485.532 -84.921 -505.741
lowerback 34.1808 -0.817283 0.521555
upperback 5.66725 -1.4619 1.13487
thorax -11.114 -1.00138 1.57142
lowerneck -18.9095 -2.35506 -2.99873
upperneck -0.508564 -3.12286 6.9325
head 2.98726 -1.34038 2.37213
rclavicle -1.67383e-014 1.30452e-014
rhumerus -12.4062 -60.0735 3.23421
rradius 10.1613
rwrist 54.3664
rhand -0.483342 -13.7199
rfingers 7.12502
rthumb 25.1273 -42.0863
lclavicle -1.67383e-014 1.30452e-014
lhumerus -38.3091 74.4168 -1111.99
lradius 23.2444
lwrist 832.713
lhand -7.54679 0.216174
lfingers 7.12502
lthumb 18.3449 29.3711
rfemur -172.3 -180.413 198.302
rtibia 36.6538
rfoot 159.499 164.123
rtoes 6.70893
lfemur -176.114 181.628 -195.939
ltibia 43.0467
lfoot -20.5183 24.442
ltoes 13.2574
3216
root 3.5246 16.5614 0.649082 485.781 -84.8899 -505.983
lowerback 34.1687 -0.815995 0.535096
upperback 5.70571 -1.46066 1.13029
thorax -11.0664 -1.00349 1.55783
lowerneck -18.9854 -2.33061 -2.91869
upperneck -0.519491 -3.1029 6.83827
head 2.99055 -1.33454 2.33139
rclavicle 1.0489e-014 -2.32827e-014
rhumerus -12.4899 -60.3575 3.31801
rradius 10.1657
rwrist 54.548
rhand -0.495157 -13.7114
rfingers 7.12502
rthumb 25.116 -42.0795
lclavicle 1.0489e-014 -2.32827e-014
lhumerus -38.6138 74.5213 -1112.32
lradius 23.2201
lwrist 832.547
lhand -7.51546 0.218993
lfingers 7.12502
lthumb 18.375 29.3711
rfemur -172.328 -180.408 198.284
rtibia 36.6424
rfoot 159.541 164.158
rtoes 6.77754
lfemur -176.132 181.598 -195.945
ltibia 43.0558
lfoot -20.5253 24.4621
ltoes 13.2555
3217
root 3.52741 16.5619 0.653072 485.933 -84.8668 -506.129
lowerback 34.1461 -0.817063 0.545989
upperback 5.75286 -1.46318 1.13424
thorax -11.0047 -1.00762 1.55584
lowerneck -19.043 -2.3111 -2.85513
upperneck -0.548443 -3.08524 6.7408
head 2.98587 -1.33074 2.29226
rclavicle 1.13463e-014 -1.66979e-014
rhumerus -12.5037 -60.4299 3.35131
rradius 10.1723
rwrist 54.5083
rhand -0.469881 -13.7387
rfingers 7.12502
rthumb 25.1402 -42.1034
lclavicle 1.13463e-014 -1.66979e-014
lhumerus -38.9299 74.5904 -1112.63
lradius 23.2135
lwrist 832.446
lhand -7.50569 0.23385
lfingers 7.12502
lthumb 18.3844 29.3851
rfemur -172.349 -180.393 198.261
rtibia 36.6334
rfoot 159.56 164.212
rtoes 6.83736
lfemur -176.149 181.575 -195.95
ltibia 43.0608
lfoot -20.5175 24.4719
ltoes 13.2484
3218
root 3.53037 16.5609 0.657582 486.154 -84.8385 -506.352
lowerback 34.1431 -0.813786 0.569139
upperback 5.78908 -1.45606 1.12777
thorax -10.9634 -1.00721 1.53304
lowerneck -19.0938 -2.29538 -2.76972
upperneck -0.574456 -3.07765 6.64393
head 2.98132 -1.33188 2.249
rclavicle -1.39553e-014 4.77083e-015
rhumerus -12.6201 -60.6558 3.46718
rradius 10.1794
rwrist 54.6409
rhand -0.48088 -13.7521
rfingers 7.12502
rthumb 25.1297 -42.1182
lclavicle -1.39553e-014 4.77083e-015
lhumerus -39.0003 74.6161 -1112.69
lradius 23.211
lwrist 832.417
lhand -7.51796 0.174168
lfingers 7.12502
lthumb 18.3726 29.3265
rfemur -172.367 -180.388 198.242
rtibia 36.6257
rfoot 159.597 164.244
rtoes 6.9051
lfemur -176.153 181.593 -195.975
ltibia 43.0674
lfoot -20.526 24.521
ltoes 13.1972
